HIERARCHY
ROOT Hips
{
	OFFSET 0.000000 97.167313 0.000000
	CHANNELS 6 Xposition Yposition Zposition Xrotation Yrotation Zrotation
	JOINT Spine
	{
		OFFSET 0.000000 13.784798 0.064400
		CHANNELS 3 Xrotation Yrotation Zrotation
		JOINT Spine1
		{
			OFFSET 0.000000 12.037903 0.404700
			CHANNELS 3 Xrotation Yrotation Zrotation
			JOINT Spine2
			{
				OFFSET 0.000000 17.795601 0.420200
				CHANNELS 3 Xrotation Yrotation Zrotation
				JOINT Neck
				{
					OFFSET 0.000000 39.131302 11.954600
					CHANNELS 3 Xrotation Yrotation Zrotation
					JOINT Head
					{
						OFFSET 0.000000 14.456192 15.627699
						CHANNELS 3 Xrotation Yrotation Zrotation
						JOINT HeadTop_End
						{
							OFFSET 0.000000 15.703506 7.603401
							CHANNELS 3 Xrotation Yrotation Zrotation
							End Site
							{
								OFFSET 0.000000 17.447403 0.000000
							}
						}
					}
				}
				JOINT LeftShoulder
				{
					OFFSET 17.399500 24.608795 1.168800
					CHANNELS 3 Xrotation Yrotation Zrotation
					JOINT LeftArm
					{
						OFFSET 18.980635 5.765305 1.818600
						CHANNELS 3 Xrotation Yrotation Zrotation
						JOINT LeftForeArm
						{
							OFFSET 49.290169 0.000000 0.000000
							CHANNELS 3 Xrotation Yrotation Zrotation
							JOINT LeftHand
							{
								OFFSET 31.562012 0.000000 0.000000
								CHANNELS 3 Xrotation Yrotation Zrotation
								JOINT LeftHandThumb1
								{
									OFFSET 6.133995 -4.388519 7.076070
									CHANNELS 3 Xrotation Yrotation Zrotation
									JOINT LeftHandThumb2
									{
										OFFSET 6.037666 -3.485840 3.485847
										CHANNELS 3 Xrotation Yrotation Zrotation
										JOINT LeftHandThumb3
										{
											OFFSET 6.496506 -3.750763 3.750761
											CHANNELS 3 Xrotation Yrotation Zrotation
											JOINT LeftHandThumb4
											{
												OFFSET 5.616882 -3.242905 3.242910
												CHANNELS 3 Xrotation Yrotation Zrotation
												End Site
												{
													OFFSET -1.254608 7.132141 0.375429
												}
											}
										}
									}
								}
								JOINT LeftHandPinky1
								{
									OFFSET 18.920792 -0.453171 -11.426712
									CHANNELS 3 Xrotation Yrotation Zrotation
									JOINT LeftHandPinky2
									{
										OFFSET 4.919586 0.000000 0.000000
										CHANNELS 3 Xrotation Yrotation Zrotation
										JOINT LeftHandPinky3
										{
											OFFSET 5.233047 0.000000 0.000000
											CHANNELS 3 Xrotation Yrotation Zrotation
											JOINT LeftHandPinky4
											{
												OFFSET 5.571716 0.000000 0.000000
												CHANNELS 3 Xrotation Yrotation Zrotation
												End Site
												{
													OFFSET -3.459808 4.342407 -0.466164
												}
											}
										}
									}
								}
								JOINT LeftHandRing1
								{
									OFFSET 22.726120 -0.094986 -6.500475
									CHANNELS 3 Xrotation Yrotation Zrotation
									JOINT LeftHandRing2
									{
										OFFSET 6.408615 0.000000 0.000000
										CHANNELS 3 Xrotation Yrotation Zrotation
										JOINT LeftHandRing3
										{
											OFFSET 6.150223 0.000000 0.000000
											CHANNELS 3 Xrotation Yrotation Zrotation
											JOINT LeftHandRing4
											{
												OFFSET 6.145386 0.000000 0.000000
												CHANNELS 3 Xrotation Yrotation Zrotation
												End Site
												{
													OFFSET -3.671402 4.923981 -0.202372
												}
											}
										}
									}
								}
								JOINT LeftHandMiddle1
								{
									OFFSET 23.373947 0.000000 0.000001
									CHANNELS 3 Xrotation Yrotation Zrotation
									JOINT LeftHandMiddle2
									{
										OFFSET 6.996567 0.000000 0.000000
										CHANNELS 3 Xrotation Yrotation Zrotation
										JOINT LeftHandMiddle3
										{
											OFFSET 7.015945 0.000000 0.000000
											CHANNELS 3 Xrotation Yrotation Zrotation
											JOINT LeftHandMiddle4
											{
												OFFSET 7.721573 0.000000 0.000000
												CHANNELS 3 Xrotation Yrotation Zrotation
												End Site
												{
													OFFSET -4.651108 6.158463 0.251582
												}
											}
										}
									}
								}
								JOINT LeftHandIndex1
								{
									OFFSET 21.310577 -0.490082 6.209344
									CHANNELS 3 Xrotation Yrotation Zrotation
									JOINT LeftHandIndex2
									{
										OFFSET 7.536453 0.000000 0.000000
										CHANNELS 3 Xrotation Yrotation Zrotation
										JOINT LeftHandIndex3
										{
											OFFSET 7.512344 0.000000 0.000000
											CHANNELS 3 Xrotation Yrotation Zrotation
											JOINT LeftHandIndex4
											{
												OFFSET 10.212402 0.000000 0.000001
												CHANNELS 3 Xrotation Yrotation Zrotation
												End Site
												{
													OFFSET -5.180801 8.690506 1.388433
												}
											}
										}
									}
								}
							}
						}
					}
				}
				JOINT RightShoulder
				{
					OFFSET -17.399500 24.608795 1.168800
					CHANNELS 3 Xrotation Yrotation Zrotation
					JOINT RightArm
					{
						OFFSET -18.980635 5.765305 1.818600
						CHANNELS 3 Xrotation Yrotation Zrotation
						JOINT RightForeArm
						{
							OFFSET -49.290169 0.000000 0.000000
							CHANNELS 3 Xrotation Yrotation Zrotation
							JOINT RightHand
							{
								OFFSET -31.562012 0.000000 0.000000
								CHANNELS 3 Xrotation Yrotation Zrotation
								JOINT RightHandThumb1
								{
									OFFSET -6.133995 -4.388519 7.076070
									CHANNELS 3 Xrotation Yrotation Zrotation
									JOINT RightHandThumb2
									{
										OFFSET -6.037666 -3.485840 3.485847
										CHANNELS 3 Xrotation Yrotation Zrotation
										JOINT RightHandThumb3
										{
											OFFSET -6.496506 -3.750763 3.750761
											CHANNELS 3 Xrotation Yrotation Zrotation
											JOINT RightHandThumb4
											{
												OFFSET -5.616882 -3.242905 3.242910
												CHANNELS 3 Xrotation Yrotation Zrotation
												End Site
												{
													OFFSET 1.254608 7.132141 0.375429
												}
											}
										}
									}
								}
								JOINT RightHandIndex1
								{
									OFFSET -21.310577 -0.490082 6.209344
									CHANNELS 3 Xrotation Yrotation Zrotation
									JOINT RightHandIndex2
									{
										OFFSET -7.536453 0.000000 0.000000
										CHANNELS 3 Xrotation Yrotation Zrotation
										JOINT RightHandIndex3
										{
											OFFSET -7.512344 0.000000 0.000000
											CHANNELS 3 Xrotation Yrotation Zrotation
											JOINT RightHandIndex4
											{
												OFFSET -10.212402 0.000000 0.000001
												CHANNELS 3 Xrotation Yrotation Zrotation
												End Site
												{
													OFFSET 5.180801 8.690506 1.388433
												}
											}
										}
									}
								}
								JOINT RightHandMiddle1
								{
									OFFSET -23.373947 0.000000 0.000001
									CHANNELS 3 Xrotation Yrotation Zrotation
									JOINT RightHandMiddle2
									{
										OFFSET -6.996567 0.000000 0.000000
										CHANNELS 3 Xrotation Yrotation Zrotation
										JOINT RightHandMiddle3
										{
											OFFSET -7.015945 0.000000 0.000000
											CHANNELS 3 Xrotation Yrotation Zrotation
											JOINT RightHandMiddle4
											{
												OFFSET -7.721573 0.000000 0.000000
												CHANNELS 3 Xrotation Yrotation Zrotation
												End Site
												{
													OFFSET 4.651108 6.158463 0.251582
												}
											}
										}
									}
								}
								JOINT RightHandRing1
								{
									OFFSET -22.726120 -0.094986 -6.500475
									CHANNELS 3 Xrotation Yrotation Zrotation
									JOINT RightHandRing2
									{
										OFFSET -6.408615 0.000000 0.000000
										CHANNELS 3 Xrotation Yrotation Zrotation
										JOINT RightHandRing3
										{
											OFFSET -6.150223 0.000000 0.000000
											CHANNELS 3 Xrotation Yrotation Zrotation
											JOINT RightHandRing4
											{
												OFFSET -6.145386 0.000000 0.000000
												CHANNELS 3 Xrotation Yrotation Zrotation
												End Site
												{
													OFFSET 3.671402 4.923981 -0.202372
												}
											}
										}
									}
								}
								JOINT RightHandPinky1
								{
									OFFSET -18.920792 -0.453171 -11.426712
									CHANNELS 3 Xrotation Yrotation Zrotation
									JOINT RightHandPinky2
									{
										OFFSET -4.919586 0.000000 0.000000
										CHANNELS 3 Xrotation Yrotation Zrotation
										JOINT RightHandPinky3
										{
											OFFSET -5.233047 0.000000 0.000000
											CHANNELS 3 Xrotation Yrotation Zrotation
											JOINT RightHandPinky4
											{
												OFFSET -5.571716 0.000000 0.000000
												CHANNELS 3 Xrotation Yrotation Zrotation
												End Site
												{
													OFFSET 3.459808 4.342407 -0.466164
												}
											}
										}
									}
								}
							}
						}
					}
				}
			}
		}
	}
	JOINT LeftUpLeg
	{
		OFFSET 19.899099 -7.885101 -3.429500
		CHANNELS 3 Xrotation Yrotation Zrotation
		JOINT LeftLeg
		{
			OFFSET 1.745560 -36.997807 10.304700
			CHANNELS 3 Xrotation Yrotation Zrotation
			JOINT LeftFoot
			{
				OFFSET -1.745558 -29.803308 -13.615400
				CHANNELS 3 Xrotation Yrotation Zrotation
				JOINT LeftToeBase
				{
					OFFSET 1.181900 -18.539904 15.226099
					CHANNELS 3 Xrotation Yrotation Zrotation
					JOINT LeftToe_End
					{
						OFFSET -0.863701 1.402801 16.534700
						CHANNELS 3 Xrotation Yrotation Zrotation
						End Site
						{
							OFFSET 0.000000 16.616566 0.000000
						}
					}
				}
			}
		}
	}
	JOINT RightUpLeg
	{
		OFFSET -19.899099 -7.885101 -3.429500
		CHANNELS 3 Xrotation Yrotation Zrotation
		JOINT RightLeg
		{
			OFFSET -1.745560 -36.997807 10.304700
			CHANNELS 3 Xrotation Yrotation Zrotation
			JOINT RightFoot
			{
				OFFSET 1.745558 -29.803308 -13.615400
				CHANNELS 3 Xrotation Yrotation Zrotation
				JOINT RightToeBase
				{
					OFFSET -1.181900 -18.539904 15.226099
					CHANNELS 3 Xrotation Yrotation Zrotation
					JOINT RightToe_End
					{
						OFFSET 0.863701 1.402801 16.534700
						CHANNELS 3 Xrotation Yrotation Zrotation
						End Site
						{
							OFFSET 0.000000 16.616566 0.000000
						}
					}
				}
			}
		}
	}
}
MOTION
Frames: 4
Frame Time: 0.033333
0.321591 12.915947 -10.756927 66.386263 -1.470827 -4.030067 -11.831569 6.648197 2.575409 -2.309349 0.884112 1.311131 -2.318812 0.888991 1.306356 -32.790393 -1.259741 -3.923169 -26.568918 -5.909062 -3.585854 0.000000 0.000000 -0.000000 -2.236085 9.029572 -3.049479 -12.637192 -25.295351 -64.177455 84.874881 -24.057641 70.566257 4.826243 -17.650807 55.057974 -20.999441 -15.563202 2.815929 23.749340 -9.832731 14.846499 -2.094744 -21.200876 -11.777881 -0.000001 0.000001 -0.000001 -47.910311 9.900282 26.802274 0.225306 2.298185 -16.994252 0.826728 2.986922 -23.305948 -0.000003 -0.000003 -0.000003 27.416337 -1.378839 18.515127 1.026011 5.595384 -42.830549 0.594936 3.886352 -29.493156 -0.000000 -0.000001 0.000003 18.160204 -13.235827 31.770171 2.596491 8.590149 -68.043205 0.854334 3.170877 -24.409300 0.000002 -0.000002 0.000004 4.803384 -19.148154 19.029056 1.912066 5.758220 -46.352058 0.288906 2.126805 -16.214186 -0.000000 0.000001 -0.000001 10.679142 -31.572969 16.466142 -15.902055 22.396865 48.722632 104.891188 57.594122 -71.996669 14.962484 1.008067 -64.255066 -19.817251 20.385562 3.440858 29.558644 -0.563620 2.111292 12.898718 -13.608284 -6.841975 0.000000 -0.000001 0.000001 4.732496 18.923121 -17.292057 1.914178 -5.760404 46.372429 0.290311 -2.131592 16.253607 -0.000001 -0.000001 -0.000001 18.400116 13.720911 -36.404516 2.599337 -8.591927 68.060929 0.854769 -3.171909 24.417392 0.000000 -0.000000 -0.000004 27.796449 2.412638 -27.132307 1.036500 -5.607737 42.936700 0.603821 -3.901941 29.621581 -0.000001 -0.000000 -0.000003 -46.841991 -8.314447 -40.730091 0.319410 -2.588009 19.200951 0.997474 -3.355157 26.390592 -0.000001 0.000001 0.000004 -5.561192 35.381329 31.976302 23.377361 41.474667 3.050846 24.097823 1.393549 -6.418823 2.601959 7.930658 -7.485477 -0.000000 -0.000001 0.000000 8.843767 -26.815715 -19.954242 24.794570 -50.435753 13.548831 32.022666 -2.545824 -2.158092 3.622546 0.641986 -0.463669 -0.000000 0.000000 0.000000 
0.586666 13.570763 -8.950020 64.792889 -1.336523 -4.637765 -11.431186 5.460632 3.043761 -2.532861 0.736226 1.543413 -2.545293 0.732163 1.534616 -34.069646 -1.008031 -4.158499 -27.388695 -6.544320 -3.598698 -0.000001 -0.000000 0.000000 -1.765510 6.608929 -2.987350 -13.252265 -18.244354 -65.747435 88.322993 -23.316384 67.688896 5.114447 -16.371453 57.278390 -20.372573 -13.655341 4.481823 23.829051 -9.738317 14.491281 -4.765089 -24.344797 -13.754942 0.000001 -0.000001 -0.000001 -47.730725 10.013921 26.204098 0.206786 2.239215 -16.548001 0.794425 2.922842 -22.777211 0.000002 0.000001 -0.000004 27.224564 -1.079518 17.168514 0.867441 5.408288 -41.194643 0.525935 3.770302 -28.492472 -0.000004 -0.000001 0.000005 17.910971 -12.573804 29.608993 2.133639 8.345807 -64.996551 0.814894 3.091140 -23.446317 0.000001 -0.000002 0.000001 4.777653 -18.550944 17.162307 1.722739 5.569164 -44.462414 0.266234 2.053295 -15.591662 -0.000002 0.000003 0.000001 10.545649 -30.323311 17.011469 -14.060226 21.757767 44.953399 112.961084 47.081361 -77.747722 3.436109 -2.477040 -52.131176 -20.515653 22.546967 -4.103872 31.705219 -5.940931 3.224759 13.271432 -17.322068 -8.540874 -0.000000 -0.000001 -0.000001 6.188582 19.164206 -28.069327 1.173356 -4.950819 38.446896 0.301921 -2.178838 16.425280 -0.000001 -0.000001 -0.000001 20.123139 9.670325 -40.361200 0.335924 -7.143425 52.005900 0.742111 -2.889865 20.159216 0.000001 0.000000 -0.000009 29.142744 -2.826532 -30.142175 0.558155 -4.746863 32.047231 0.248633 -3.206607 23.477455 -0.000002 0.000001 -0.000002 -46.885666 -0.793801 -41.335536 0.161181 -2.115618 15.464206 0.788634 -2.906674 22.641037 -0.000002 -0.000003 0.000004 -3.386733 34.837947 31.151274 22.722518 42.810311 3.798355 23.597023 1.352347 -6.760212 3.699288 7.832287 -5.343030 0.000000 0.000000 -0.000000 10.446399 -25.699632 -18.244101 22.622705 -52.064353 11.453746 31.973024 -2.813760 -4.315763 4.489294 0.193221 -2.216957 0.000000 -0.000000 -0.000001 
0.751573 14.381798 -7.076950 63.579499 -0.989307 -5.157047 -11.087047 4.169887 3.436287 -2.648763 0.571071 1.601583 -2.659538 0.560010 1.592422 -35.580238 -0.665172 -4.360501 -28.280813 -6.489945 -4.608104 -0.000001 0.000000 -0.000000 -1.328966 4.558072 -3.906082 -12.032790 -15.213876 -65.316232 87.837107 -23.587551 65.351537 5.499204 -15.284316 60.085857 -19.358004 -12.308172 5.228982 23.857152 -9.639722 14.129438 -1.986057 -21.563558 -11.725674 0.000000 -0.000001 -0.000001 -47.521909 10.307925 25.342645 0.186103 2.171274 -16.035110 0.758035 2.849397 -22.170920 0.000001 -0.000001 0.000001 26.971968 -0.828141 15.434071 0.709566 5.208864 -39.499401 0.455302 3.647861 -27.444568 -0.000000 -0.000000 0.000005 17.628479 -11.889003 26.967829 1.664586 8.056967 -61.793842 0.771737 3.004078 -22.400860 -0.000001 -0.000000 0.000008 4.764128 -17.853717 14.736179 1.525018 5.356870 -42.414010 0.239668 1.963215 -14.837246 -0.000001 0.000003 -0.000001 10.539186 -29.112623 17.652860 -12.637965 21.822999 39.512948 119.858086 41.834820 -81.535151 -5.638481 -3.441984 -40.741085 -19.934617 20.435591 -12.893706 35.512664 -14.676697 5.637342 14.313048 -23.935023 -10.881418 -0.000001 -0.000001 0.000001 7.400790 18.947848 -37.178526 0.606514 -4.095986 31.227113 0.344877 -2.328728 17.358562 -0.000003 0.000001 -0.000001 20.656116 4.815934 -42.489244 -1.257657 -4.948193 36.527015 0.664235 -2.690989 16.509570 0.000000 0.000001 -0.000004 29.350733 -8.884713 -34.666591 -0.171354 -3.300937 21.996438 -0.022239 -2.499109 17.536664 -0.000000 0.000001 -0.000003 -44.428547 8.589516 -42.981738 0.116249 -1.936470 14.158774 0.693276 -2.671333 20.713389 0.000000 -0.000001 -0.000002 -0.571348 33.062125 29.757010 22.657172 45.149545 3.374658 23.753685 1.466607 -7.369986 4.927712 7.791282 -2.992105 -0.000002 -0.000000 -0.000000 11.438380 -24.521784 -16.846713 20.874199 -53.731343 9.394261 31.614685 -3.107806 -5.882328 5.360971 -0.232964 -4.113020 -0.000001 0.000001 0.000001 
0.910028 15.065155 -5.555580 62.974973 -0.236921 -5.638269 -11.066084 2.449064 3.811484 -2.660831 0.399098 1.564441 -2.667745 0.383278 1.558026 -37.027080 -0.120560 -4.749078 -29.703895 -5.536713 -6.529006 -0.000000 0.000000 -0.000000 -0.904629 2.916126 -5.752504 -11.152130 -11.466222 -64.059142 89.281152 -22.503195 64.489628 4.925468 -13.065030 62.358794 -18.691596 -8.923610 7.796596 23.847621 -9.537873 13.761932 -9.471403 -29.894693 -17.438050 -0.000002 -0.000000 0.000000 -47.284187 10.736530 24.289722 0.164180 2.096771 -15.473934 0.719196 2.768946 -21.507914 0.000000 0.000002 0.000001 26.669525 -0.614079 13.419338 0.554754 4.999025 -37.762115 0.384399 3.520276 -26.361621 -0.000001 0.000000 0.000003 17.336234 -11.192593 23.980929 1.200722 7.725116 -58.481316 0.726336 2.911764 -21.294590 0.000001 -0.000001 0.000001 4.775710 -17.093120 11.906389 1.325080 5.124770 -40.250954 0.211002 1.860823 -13.986329 -0.000001 0.000003 -0.000003 10.975134 -27.252484 18.781548 -11.838763 20.063867 35.159153 123.991894 35.917885 -87.624674 -13.565159 -6.006243 -27.214320 -19.000201 18.449038 -17.274303 36.047286 -15.132841 6.221934 14.618874 -25.275991 -11.631813 0.000002 0.000003 0.000001 7.572738 18.014583 -42.017442 0.368256 -3.623806 27.643779 0.435466 -2.606291 19.384186 -0.000000 0.000000 0.000001 19.663684 1.404571 -42.613390 -1.851534 -3.217822 26.722002 0.640586 -2.656203 14.886233 0.000000 0.000000 -0.000004 27.462464 -12.501290 -35.950608 -0.737392 -2.231774 17.447570 -0.111271 -2.203088 15.094904 -0.000001 0.000001 -0.000001 -41.214967 10.147093 -43.281143 0.186489 -2.166105 15.997189 0.756823 -2.819644 21.918460 0.000000 -0.000001 0.000004 2.697850 30.457405 28.247837 23.693479 47.763649 0.766476 24.591985 1.568964 -8.459205 6.193225 7.675436 -0.443322 -0.000001 0.000000 0.000000 11.843757 -23.203153 -15.926106 20.954122 -55.365483 8.568617 30.848303 -3.356172 -6.484988 6.228517 -0.647898 -5.994797 -0.000000 -0.000001 0.000000 
